<svg xmlns="http://www.w3.org/2000/svg" width="1200" height="460" viewBox="0 0 1200 460">
<style>text{font-family:Arial,Helvetica,sans-serif;fill:#222} .small{font-size:11px} .mid{font-size:13px} .title{font-size:18px;font-weight:bold} .axis{stroke:#666;stroke-width:1} .grid{stroke:#ddd;stroke-width:1;stroke-dasharray:4 4}</style>
<rect width="100%" height="100%" fill="white"/>
<text x="600.0" y="30" text-anchor="middle" class="title">Gradient benchmark error (cell)</text>
<text x="20" y="212.5" transform="rotate(-90 20 212.5)" text-anchor="middle" class="mid">mean benchmark NRMSE</text>
<line x1="90" y1="365.0" x2="1170" y2="365.0" class="grid"/>
<text x="82" y="369.0" text-anchor="end" class="small">0.00</text>
<line x1="90" y1="304.0" x2="1170" y2="304.0" class="grid"/>
<text x="82" y="308.0" text-anchor="end" class="small">0.08</text>
<line x1="90" y1="243.0" x2="1170" y2="243.0" class="grid"/>
<text x="82" y="247.0" text-anchor="end" class="small">0.16</text>
<line x1="90" y1="182.0" x2="1170" y2="182.0" class="grid"/>
<text x="82" y="186.0" text-anchor="end" class="small">0.25</text>
<line x1="90" y1="121.0" x2="1170" y2="121.0" class="grid"/>
<text x="82" y="125.0" text-anchor="end" class="small">0.33</text>
<line x1="90" y1="60.0" x2="1170" y2="60.0" class="grid"/>
<text x="82" y="64.0" text-anchor="end" class="small">0.41</text>
<line x1="90" y1="60" x2="90" y2="365" class="axis"/>
<line x1="90" y1="365" x2="1170" y2="365" class="axis"/>
<rect x="122.4" y="357.0" width="34.0" height="8.0" fill="#4C78A8"/>
<text x="180.0" y="420" text-anchor="end" transform="rotate(-20 180.0 420)" class="small">StructGrid</text>
<rect x="302.4" y="348.8" width="34.0" height="16.2" fill="#4C78A8"/>
<text x="360.0" y="420" text-anchor="end" transform="rotate(-20 360.0 420)" class="small">limb</text>
<rect x="482.4" y="337.6" width="34.0" height="27.4" fill="#4C78A8"/>
<text x="540.0" y="420" text-anchor="end" transform="rotate(-20 540.0 420)" class="small">hexa</text>
<rect x="662.4" y="99.8" width="34.0" height="265.2" fill="#4C78A8"/>
<rect x="704.4" y="323.3" width="34.0" height="41.7" fill="#F58518"/>
<text x="720.0" y="420" text-anchor="end" transform="rotate(-20 720.0 420)" class="small">ShipHull</text>
<rect x="842.4" y="132.5" width="34.0" height="232.5" fill="#4C78A8"/>
<rect x="884.4" y="333.9" width="34.0" height="31.1" fill="#F58518"/>
<text x="900.0" y="420" text-anchor="end" transform="rotate(-20 900.0 420)" class="small">1_0</text>
<rect x="1022.4" y="297.0" width="34.0" height="68.0" fill="#4C78A8"/>
<rect x="1064.4" y="302.6" width="34.0" height="62.4" fill="#F58518"/>
<text x="1080.0" y="420" text-anchor="end" transform="rotate(-20 1080.0 420)" class="small">notch</text>
<rect x="950" y="20" width="14" height="14" fill="#4C78A8"/>
<text x="970" y="32" class="small">ambient NRMSE</text>
<rect x="950" y="40" width="14" height="14" fill="#F58518"/>
<text x="970" y="52" class="small">intrinsic NRMSE</text>
</svg>