<svg xmlns="http://www.w3.org/2000/svg" width="1200" height="460" viewBox="0 0 1200 460">
<style>text{font-family:Arial,Helvetica,sans-serif;fill:#222} .small{font-size:11px} .mid{font-size:13px} .title{font-size:18px;font-weight:bold} .axis{stroke:#666;stroke-width:1} .grid{stroke:#ddd;stroke-width:1;stroke-dasharray:4 4}</style>
<rect width="100%" height="100%" fill="white"/>
<text x="600.0" y="30" text-anchor="middle" class="title">Gradient benchmark wall time vs GPU time</text>
<text x="20" y="212.5" transform="rotate(-90 20 212.5)" text-anchor="middle" class="mid">log time (ms)</text>
<line x1="90" y1="365.0" x2="1170" y2="365.0" class="grid"/>
<text x="82" y="369.0" text-anchor="end" class="small">1e-2</text>
<line x1="90" y1="288.8" x2="1170" y2="288.8" class="grid"/>
<text x="82" y="292.8" text-anchor="end" class="small">1e-1</text>
<line x1="90" y1="212.5" x2="1170" y2="212.5" class="grid"/>
<text x="82" y="216.5" text-anchor="end" class="small">1e0</text>
<line x1="90" y1="136.2" x2="1170" y2="136.2" class="grid"/>
<text x="82" y="140.2" text-anchor="end" class="small">1e1</text>
<line x1="90" y1="60.0" x2="1170" y2="60.0" class="grid"/>
<text x="82" y="64.0" text-anchor="end" class="small">1e2</text>
<line x1="90" y1="60" x2="90" y2="365" class="axis"/>
<line x1="90" y1="365" x2="1170" y2="365" class="axis"/>
<rect x="114.3" y="205.9" width="34.0" height="159.1" fill="#54A24B"/>
<rect x="156.3" y="305.9" width="34.0" height="59.1" fill="#E45756"/>
<text x="157.5" y="420" text-anchor="end" transform="rotate(-18 157.5 420)" class="small">Struct-P</text>
<rect x="249.3" y="190.2" width="34.0" height="174.8" fill="#54A24B"/>
<rect x="291.3" y="307.4" width="34.0" height="57.6" fill="#E45756"/>
<text x="292.5" y="420" text-anchor="end" transform="rotate(-18 292.5 420)" class="small">Struct-C</text>
<rect x="384.3" y="107.1" width="34.0" height="257.9" fill="#54A24B"/>
<rect x="426.3" y="231.9" width="34.0" height="133.1" fill="#E45756"/>
<text x="427.5" y="420" text-anchor="end" transform="rotate(-18 427.5 420)" class="small">limb-P</text>
<rect x="519.3" y="83.2" width="34.0" height="281.8" fill="#54A24B"/>
<rect x="561.3" y="211.3" width="34.0" height="153.7" fill="#E45756"/>
<text x="562.5" y="420" text-anchor="end" transform="rotate(-18 562.5 420)" class="small">limb-C</text>
<rect x="654.3" y="233.5" width="34.0" height="131.5" fill="#54A24B"/>
<rect x="696.3" y="281.8" width="34.0" height="83.2" fill="#E45756"/>
<text x="697.5" y="420" text-anchor="end" transform="rotate(-18 697.5 420)" class="small">Hull-P</text>
<rect x="789.3" y="235.0" width="34.0" height="130.0" fill="#54A24B"/>
<rect x="831.3" y="304.2" width="34.0" height="60.8" fill="#E45756"/>
<text x="832.5" y="420" text-anchor="end" transform="rotate(-18 832.5 420)" class="small">Hull-C</text>
<rect x="924.3" y="191.8" width="34.0" height="173.2" fill="#54A24B"/>
<rect x="966.3" y="230.0" width="34.0" height="135.0" fill="#E45756"/>
<text x="967.5" y="420" text-anchor="end" transform="rotate(-18 967.5 420)" class="small">notch-P</text>
<rect x="1059.3" y="187.5" width="34.0" height="177.5" fill="#54A24B"/>
<rect x="1101.3" y="301.3" width="34.0" height="63.7" fill="#E45756"/>
<text x="1102.5" y="420" text-anchor="end" transform="rotate(-18 1102.5 420)" class="small">notch-C</text>
<rect x="960" y="20" width="14" height="14" fill="#54A24B"/>
<text x="980" y="32" class="small">wall time (ms)</text>
<rect x="960" y="40" width="14" height="14" fill="#E45756"/>
<text x="980" y="52" class="small">gpu time (ms)</text>
</svg>