<svg xmlns="http://www.w3.org/2000/svg" width="1200" height="460" viewBox="0 0 1200 460">
<style>text{font-family:Arial,Helvetica,sans-serif;fill:#222} .small{font-size:11px} .mid{font-size:13px} .title{font-size:18px;font-weight:bold} .axis{stroke:#666;stroke-width:1} .grid{stroke:#ddd;stroke-width:1;stroke-dasharray:4 4}</style>
<rect width="100%" height="100%" fill="white"/>
<text x="600.0" y="30" text-anchor="middle" class="title">Multiscale denoising summary (cell)</text>
<text x="20" y="212.5" transform="rotate(-90 20 212.5)" text-anchor="middle" class="mid">ratio (&lt;1 is better)</text>
<line x1="90" y1="365.0" x2="1170" y2="365.0" class="grid"/>
<text x="82" y="369.0" text-anchor="end" class="small">0.00</text>
<line x1="90" y1="304.0" x2="1170" y2="304.0" class="grid"/>
<text x="82" y="308.0" text-anchor="end" class="small">0.32</text>
<line x1="90" y1="243.0" x2="1170" y2="243.0" class="grid"/>
<text x="82" y="247.0" text-anchor="end" class="small">0.64</text>
<line x1="90" y1="182.0" x2="1170" y2="182.0" class="grid"/>
<text x="82" y="186.0" text-anchor="end" class="small">0.96</text>
<line x1="90" y1="121.0" x2="1170" y2="121.0" class="grid"/>
<text x="82" y="125.0" text-anchor="end" class="small">1.28</text>
<line x1="90" y1="60.0" x2="1170" y2="60.0" class="grid"/>
<text x="82" y="64.0" text-anchor="end" class="small">1.60</text>
<line x1="90" y1="60" x2="90" y2="365" class="axis"/>
<line x1="90" y1="365" x2="1170" y2="365" class="axis"/>
<line x1="90" y1="174.4" x2="1170" y2="174.4" stroke="#333" stroke-dasharray="6 4"/>
<rect x="154.8" y="286.7" width="34.0" height="78.3" fill="#4C78A8"/>
<rect x="196.8" y="285.9" width="34.0" height="79.1" fill="#F58518"/>
<rect x="238.8" y="291.2" width="34.0" height="73.8" fill="#54A24B"/>
<text x="270.0" y="387" text-anchor="middle" class="small">gaussian</text>
<rect x="514.8" y="252.4" width="34.0" height="112.6" fill="#4C78A8"/>
<rect x="556.8" y="204.4" width="34.0" height="160.6" fill="#F58518"/>
<rect x="598.8" y="253.0" width="34.0" height="112.0" fill="#54A24B"/>
<text x="630.0" y="387" text-anchor="middle" class="small">mixed</text>
<rect x="874.8" y="124.3" width="34.0" height="240.7" fill="#4C78A8"/>
<rect x="916.8" y="174.1" width="34.0" height="190.9" fill="#F58518"/>
<rect x="958.8" y="177.8" width="34.0" height="187.2" fill="#54A24B"/>
<text x="990.0" y="387" text-anchor="middle" class="small">impulse</text>
<rect x="950" y="20" width="14" height="14" fill="#4C78A8"/>
<text x="970" y="32" class="small">MAE ratio</text>
<rect x="950" y="40" width="14" height="14" fill="#F58518"/>
<text x="970" y="52" class="small">RMSE ratio</text>
<rect x="950" y="60" width="14" height="14" fill="#54A24B"/>
<text x="970" y="72" class="small">roughness ratio</text>
</svg>